<?xml version="1.0" encoding="utf-8"?>
<!-- Generator: Adobe Illustrator 25.2.3, SVG Export Plug-In . SVG Version: 6.00 Build 0)  -->
<svg version="1.1" id="Layer_1" xmlns="http://www.w3.org/2000/svg" xmlns:xlink="http://www.w3.org/1999/xlink" x="0px" y="0px"
	 viewBox="0 0 160 55" style="enable-background:new 0 0 160 55;" xml:space="preserve">
<style type="text/css">
	.st0{fill:#A16552;}
	.st1{fill:#F5DCB4;}
	.st2{fill:#4E3F3F;}
	.st3{fill:#E6646E;}
	.st4{fill:#5D5360;}
	.st5{fill:#FFFFFF;}
	.st6{opacity:0.35;fill:#4E3F3F;enable-background:new    ;}
</style>
<path class="st0" d="M6.8,22.1c-0.3,1-0.4,2.1-0.4,3.1c0,0.1,0,0.1,0,0.2c0,1.3-0.1,2.6-0.4,3.8c-0.6-0.2-1.2-0.6-1.8-1.4
	c-1.5-1.9-1-5.1,0.9-5.8C5.7,21.8,6.3,21.9,6.8,22.1L6.8,22.1z"/>
<path class="st1" d="M6.8,22.1c-0.3,1-0.4,2.1-0.4,3.1c0,0.1,0,0.1,0,0.2c0,1.3-0.1,2.6-0.4,3.8c-0.6-0.2-1.2-0.6-1.8-1.4
	c-1.5-1.9-1-5.1,0.9-5.8C5.7,21.8,6.3,21.9,6.8,22.1L6.8,22.1z"/>
<path class="st0" d="M35,27.9c-0.6,0.7-1.2,1.2-1.8,1.4c-0.3-1.3-0.4-2.5-0.4-3.8c0-0.1,0-0.1,0-0.2c0-1.1-0.1-2.1-0.4-3.2
	c0.5-0.2,1.1-0.2,1.8,0C36.1,22.8,36.6,25.9,35,27.9z"/>
<path class="st1" d="M35,27.9c-0.6,0.7-1.2,1.2-1.8,1.4c-0.3-1.3-0.4-2.5-0.4-3.8c0-0.1,0-0.1,0-0.2c0-1.1-0.1-2.1-0.4-3.2
	c0.5-0.2,1.1-0.2,1.8,0C36.1,22.8,36.6,25.9,35,27.9z"/>
<path class="st0" d="M29.1,29.3c-0.6,0.9-0.7,2-0.4,2.9c0.3,0.7,0.5,1.6,0.5,2.2c0,4.6-4.3,8.3-9.7,8.3S9.9,39,9.9,34.4
	c0-0.6,0.2-1.5,0.5-2.2c0.3-1,0.2-2.1-0.4-2.9c-0.5-0.9-0.8-1.8-0.8-2.8c0-3,2.6-5.5,5.8-5.5c1,0,2,0.3,2.9,0.8
	c1.1,0.6,2.3,0.6,3.4,0c0.9-0.5,1.9-0.8,2.9-0.8c3.2,0,5.8,2.5,5.8,5.5c0,0.8-0.2,1.5-0.5,2.2C29.4,28.9,29.3,29.1,29.1,29.3z"/>
<path class="st1" d="M29.1,29.3c-0.6,0.9-0.7,2-0.4,2.9c0.3,0.7,0.5,1.6,0.5,2.2c0,4.6-4.3,8.3-9.7,8.3S9.9,39,9.9,34.4
	c0-0.6,0.2-1.5,0.5-2.2c0.3-1,0.2-2.1-0.4-2.9c-0.5-0.9-0.8-1.8-0.8-2.8c0-3,2.6-5.5,5.8-5.5c1,0,2,0.3,2.9,0.8
	c1.1,0.6,2.3,0.6,3.4,0c0.9-0.5,1.9-0.8,2.9-0.8c3.2,0,5.8,2.5,5.8,5.5c0,0.8-0.2,1.5-0.5,2.2C29.4,28.9,29.3,29.1,29.1,29.3z"/>
<path class="st2" d="M14.7,35.5c-0.3,0-0.6,0.2-0.6,0.6c0,0,0,0,0,0.1c0.3,2.4,2.7,4.3,5.5,4.3s5.1-1.9,5.5-4.3
	c0-0.3-0.2-0.6-0.5-0.6c0,0,0,0-0.1,0L14.7,35.5L14.7,35.5z"/>
<path class="st3" d="M16.4,39.5c1.9,1.2,4.4,1.2,6.4,0c-0.4-1.4-1.7-1.1-3.2-1.1C18.1,38.4,16.8,38.1,16.4,39.5z"/>
<path class="st0" d="M34.8,21.1c-1.1-0.4-2.1-0.2-2.7,0.2c-0.2-0.5-0.3-0.9-0.5-1.3c-0.1-0.3-0.3-0.6-0.5-1c-1.7-3.2-4.7-5.9-8.1-7
	l0-1.9l-2.2,1.3h-0.3c-0.2,0-0.3,0-0.5,0L19.7,10l-0.1-0.4c-0.1,0-0.2,0-0.3,0c-2,0.2-3,2-3.2,2.3c-3.4,1.1-6.3,3.8-8.1,7
	c-0.2,0.3-0.3,0.6-0.5,1S7.1,20.8,7,21.2H6.9c-0.6-0.3-1.5-0.5-2.6-0.1c-2.4,0.9-3,4.9-1.1,7.3c0.8,1,1.6,1.6,2.4,1.8v0.1
	c-0.1,0.7-0.2,1.3-0.2,2c0,4.7,3.5,8.8,8.5,10.6c1.2,0.4,2.4,0.7,3.6,0.8c0.6,0.1,1.3,0.1,1.9,0.1h0.2c7.8,0,14.2-5.2,14.2-11.5
	c0-0.7-0.1-1.4-0.2-2v-0.1c0.8-0.2,1.6-0.8,2.4-1.8C37.9,26,37.2,22,34.8,21.1z M6.8,22.1c-0.3,1-0.4,2.1-0.4,3.1c0,0.1,0,0.1,0,0.2
	c0,1.3-0.1,2.6-0.4,3.8c-0.6-0.2-1.2-0.6-1.8-1.4c-1.5-1.9-1-5.1,0.9-5.8C5.7,21.8,6.3,21.9,6.8,22.1L6.8,22.1z M29.5,28.6
	c-0.1,0.2-0.2,0.4-0.4,0.7c-0.6,0.9-0.7,2-0.4,2.9c0.3,0.7,0.5,1.6,0.5,2.2c0,4.6-4.3,8.3-9.7,8.3S9.9,39,9.9,34.4
	c0-0.6,0.2-1.5,0.5-2.2c0.3-1,0.2-2.1-0.4-2.9c-0.5-0.9-0.8-1.8-0.8-2.8c0-3,2.6-5.5,5.8-5.5c1,0,2,0.3,2.9,0.8
	c1.1,0.6,2.3,0.6,3.4,0c0.9-0.5,1.9-0.8,2.9-0.8c3.2,0,5.8,2.5,5.8,5.5C30,27.2,29.8,28,29.5,28.6z M35,27.9
	c-0.6,0.7-1.2,1.2-1.8,1.4c-0.3-1.3-0.4-2.5-0.4-3.8c0-0.1,0-0.1,0-0.2c0-1.1-0.1-2.1-0.4-3.2c0.5-0.2,1.1-0.2,1.8,0
	C36.1,22.8,36.6,25.9,35,27.9z"/>
<path class="st2" d="M17.2,31.4L17.2,31.4c0.1-0.3,0.4-0.4,0.6-0.2l1.1,0.5c0.2,0.1,0.3,0.4,0.2,0.6l0,0c-0.1,0.2-0.4,0.3-0.6,0.2
	L17.4,32C17.2,31.8,17.1,31.6,17.2,31.4z"/>
<path class="st2" d="M20.1,32.2L20.1,32.2c-0.1-0.3,0-0.5,0.2-0.6l1.1-0.5c0.2-0.1,0.5,0,0.6,0.2l0,0c0.1,0.2,0,0.5-0.2,0.6
	l-1.1,0.5C20.4,32.6,20.2,32.5,20.1,32.2z"/>
<path class="st2" d="M14.6,28.6L14.6,28.6c-0.9,0-1.7-0.7-1.7-1.6v-0.5c0-0.9,0.7-1.6,1.7-1.6l0,0c0.9,0,1.7,0.7,1.7,1.6V27
	C16.3,27.9,15.5,28.6,14.6,28.6z"/>
<path class="st4" d="M14.6,25v1.8c0,0.5,0.4,0.8,0.9,0.8c0.4,0,0.8-0.4,0.8-0.8v-0.3C16.3,25.7,15.5,25,14.6,25z"/>
<ellipse class="st5" cx="14.6" cy="26" rx="0.6" ry="0.5"/>
<path class="st2" d="M24.5,28.6L24.5,28.6c-0.9,0-1.7-0.7-1.7-1.6v-0.5c0-0.9,0.7-1.6,1.7-1.6l0,0c0.9,0,1.7,0.7,1.7,1.6V27
	C26.2,27.9,25.5,28.6,24.5,28.6z"/>
<path class="st4" d="M24.5,25v1.8c0,0.5,0.4,0.8,0.9,0.8c0.4,0,0.8-0.4,0.8-0.8v-0.3C26.2,25.7,25.5,25,24.5,25z"/>
<ellipse class="st5" cx="24.5" cy="26" rx="0.6" ry="0.5"/>
<path class="st6" d="M19.7,10c-0.4,0-1.2,0.5-2.1,1.6c-0.2,0.3-0.5,0.5-0.8,0.8c-1.9,2.2-4.1,5.7-4.9,9.4c-1.3,6.1-1.8,13.1,0.5,17
	c1.9,3.3,5.1,5,5.1,5c-1.2-0.1-2.4-0.4-3.6-0.8c-5-1.8-8.5-5.8-8.5-10.5c0-0.7,0.1-1.4,0.2-2v-0.1c-0.7-0.4-1.6-1-2.4-2
	C1.3,26,1.9,22,4.3,21.1c1.1-0.4,2-0.2,2.6,0.1H7c0.2-0.5,0.3-0.9,0.5-1.3c0.1-0.3,0.3-0.6,0.5-1c1.7-3.2,4.7-5.9,8.1-7
	c0.2-0.3,1.2-2.2,3.2-2.3c0.1,0,0.2,0,0.3,0L19.7,10z"/>
<path class="st5" d="M49.8,35.6c-0.4,0.2-1.2,0.2-2.3,0.2s-2-0.1-2.8-0.3c-0.7-0.2-1.1-0.5-1.1-0.8c0-0.4,0.7-2.7,2-6.9
	s2.1-6.7,2.3-7.3c0.1-0.2,0.7-0.4,1.8-0.5c1.2-0.1,2.4-0.2,3.6-0.2c1.3,0,2,0.2,2.1,0.7c2.8,9.4,4.2,14.2,4.2,14.3s-0.1,0.3-0.3,0.4
	c-0.4,0.3-1.3,0.5-2.5,0.5c-2.7,0-4-0.3-4.1-0.9l-0.2-1.5h-2.2l-0.1,1.3C50.4,35.1,50.2,35.4,49.8,35.6z M52.3,29.2l-0.3-4h-0.5
	l-0.4,4H52.3z"/>
<path class="st5" d="M61.2,38.5V24.3c0-0.3,0.4-0.6,1.3-1c0.9-0.3,1.8-0.5,2.7-0.5c0.4,0,0.8,0.1,1.1,0.2s0.4,0.2,0.5,0.3
	s0.2,0.6,0.3,1.3h0.2c0-0.1,0.2-0.3,0.4-0.6c0.2-0.3,0.5-0.5,0.7-0.7s0.6-0.3,1.1-0.5s1.1-0.2,1.6-0.2c0.6,0,1.2,0.1,1.7,0.4
	s0.9,0.6,1.1,1c0.3,0.4,0.5,0.9,0.6,1.4c0.1,0.4,0.2,0.9,0.2,1.3c0,0.3,0,0.8,0,1.5s0,1.3-0.1,1.9c0,0.6-0.1,1.3-0.2,1.9
	s-0.3,1.1-0.5,1.7c-0.2,0.5-0.5,0.9-0.9,1.3c-0.7,0.7-1.7,1.1-3,1.1c-0.4,0-0.9-0.1-1.3-0.2c-0.4-0.1-0.6-0.3-0.8-0.5
	c-0.4-0.4-0.6-0.8-0.7-1.1v-0.2H67l0.3,2v2.5c0,0.2-0.4,0.3-1.3,0.4c-0.9,0.1-1.8,0.1-2.6,0.1c-0.9,0-1.5,0-1.8-0.1
	C61.3,38.9,61.2,38.7,61.2,38.5z M68.4,26.6c-0.1-0.5-0.3-0.8-0.6-0.8s-0.5,0.1-0.6,0.4v5.9c0,0.4,0.2,0.6,0.6,0.6
	c0.5,0,0.8-1.2,0.8-3.5C68.6,28,68.6,27.1,68.4,26.6z"/>
<path class="st5" d="M82.4,30.8c0,1,0.5,1.5,1.4,1.5c0.5,0,1.2-0.2,2.1-0.6s1.3-0.6,1.4-0.6c0.3,0,0.7,0.4,1.1,1.3
	c0.5,0.9,0.7,1.5,0.7,1.9c0,0.6-0.6,1-1.8,1.3C86.2,35.9,85,36,83.8,36c-1.1,0-2.1-0.1-2.9-0.3S79.5,35.3,79,35
	c-0.9-0.5-1.6-1.3-2.1-2.2c-0.2-0.4-0.3-0.8-0.4-1.2c-0.2-0.7-0.2-1.4-0.2-2c0-2.7,0.7-4.6,2.1-5.6c0.7-0.5,1.5-0.9,2.4-1.1
	s1.9-0.3,3.1-0.3c3.8,0,5.7,1.3,5.7,4c0,2.8-2.1,4.2-6.4,4.2H82.4z M82.4,27.5V29c0.4,0,0.8-0.2,1.1-0.5c0.3-0.4,0.4-0.8,0.4-1.3
	c0-0.9-0.2-1.3-0.7-1.3C82.6,25.8,82.4,26.4,82.4,27.5z"/>
<path class="st5" d="M102.9,34.9c-0.4,0.3-1.1,0.6-1.9,0.8S99.2,36,97.9,36c-1.2,0-2.4-0.1-3.6-0.3c-1.1-0.2-2-0.4-2.4-0.7
	c-0.5-0.3-0.7-0.5-0.7-0.7c0-0.9,0.1-1.8,0.4-2.6c0.2-0.9,0.5-1.4,0.9-1.4c0.1,0,0.7,0.2,1.9,0.6c1.2,0.4,2.1,0.6,2.7,0.6
	s1-0.1,1.2-0.2s0.3-0.3,0.3-0.6c0-0.2-0.2-0.5-0.5-0.6c-0.4-0.2-0.8-0.4-1.2-0.5C96,29.5,95.5,29.3,95,29c-0.6-0.3-1.1-0.6-1.6-0.9
	c-0.5-0.4-0.9-0.8-1.2-1.4c-0.3-0.6-0.5-1.4-0.5-2.1c0-3.3,2-5,6-5c1.5,0,2.8,0.1,3.8,0.3s1.8,0.4,2.3,0.6c0.4,0.2,0.7,0.5,0.7,0.7
	c0,0.8-0.2,1.6-0.6,2.5s-0.7,1.3-1.1,1.3c-0.1,0-0.3-0.1-0.6-0.2c-1-0.4-1.8-0.7-2.5-0.7s-1.1,0.1-1.3,0.2C98.2,24.5,98,24.8,98,25
	s0.2,0.4,0.5,0.6c0.4,0.2,0.8,0.3,1.2,0.4c0.5,0.1,1.1,0.3,1.6,0.6c0.6,0.3,1.1,0.6,1.6,0.9c0.5,0.4,0.9,0.8,1.2,1.5
	c0.3,0.6,0.5,1.4,0.5,2.2c0,0.9-0.2,1.7-0.7,2.4C103.7,34.2,103.3,34.6,102.9,34.9z"/>
<path class="st5" d="M123.5,35.3c-0.2,0.4-1.2,0.5-3,0.5s-2.8-0.2-2.9-0.5l-0.8-4.1h-0.3l-0.7,4.1c0,0.4-1.4,0.5-3.9,0.5
	c-0.7,0-1.2,0-1.4-0.1c-0.2-0.1-0.4-0.2-0.5-0.4c-2.8-6.8-4.2-10.4-4.2-10.8s0.5-0.7,1.6-1.1c1-0.4,2.1-0.6,3.1-0.6c1.3,0,2,0.3,2,1
	l0.8,6.2h0.3l0.3-5c0-0.4,0.4-0.7,1.1-1s1.5-0.4,2.3-0.4s1.3,0.1,1.7,0.3c0.4,0.2,0.6,0.4,0.6,0.7l0.2,5.4h0.2l0.7-5.8
	c0-0.4,0.5-0.7,1.5-1s1.8-0.4,2.5-0.4s1.3,0.1,1.7,0.3c0.7,0.3,1,0.7,1,1.2c0,0-0.7,1.9-2,5.5S123.6,35.2,123.5,35.3z"/>
<path class="st5" d="M132.4,36c-1.4,0-2.4-0.3-3.2-1c-0.3-0.3-0.6-0.7-0.8-1.2s-0.3-1.1-0.3-1.8c0-0.6,0.2-1.3,0.5-1.8
	s0.7-0.9,1.2-1.2c0.5-0.3,1.1-0.5,1.7-0.7c1-0.3,2.1-0.4,3.2-0.4h0.7c0-0.6-0.2-1-0.6-1.3c-0.2-0.1-0.5-0.2-0.8-0.2
	s-0.8,0.1-1.3,0.3c-0.4,0.2-0.9,0.4-1.3,0.6c-0.3,0.2-0.6,0.3-0.7,0.3c-0.3,0-0.6-0.4-1.1-1.1s-0.7-1.4-0.7-1.9
	c0-0.2,0.3-0.4,0.8-0.8c0.6-0.3,1.3-0.6,2.3-0.9s2-0.4,3-0.4c0.8,0,1.7,0.1,2.5,0.2c0.6,0.1,1.2,0.3,1.7,0.6
	c0.4,0.2,0.8,0.5,1.1,0.9c0.3,0.3,0.5,0.7,0.7,1c0.2,0.4,0.3,0.8,0.3,1.2c0.1,0.7,0.2,1.4,0.2,2v6.8c0,0.2-0.4,0.3-1.2,0.4
	c-0.8,0.1-1.6,0.1-2.4,0.1c-0.8,0-1.3,0-1.5-0.1c-0.2,0-0.4-0.1-0.4-0.2c-0.1-0.1-0.1-0.2-0.1-0.3l-0.2-1.3h-0.2
	C135.1,35.4,134,36,132.4,36z M135.4,32.3v-2.6c-0.4,0-0.7,0.2-0.9,0.5s-0.4,0.7-0.4,1.1c0,1,0.2,1.5,0.7,1.5c0.2,0,0.3,0,0.5-0.1
	C135.3,32.6,135.4,32.4,135.4,32.3L135.4,32.3z"/>
<path class="st5" d="M143.5,38.5V24.3c0-0.3,0.4-0.6,1.3-1c0.9-0.3,1.8-0.5,2.7-0.5c0.4,0,0.8,0.1,1.1,0.2s0.4,0.2,0.5,0.3
	c0.1,0.1,0.2,0.6,0.3,1.3h0.2c0-0.1,0.2-0.3,0.4-0.6c0.2-0.3,0.5-0.5,0.7-0.7s0.6-0.3,1.1-0.5s1.1-0.2,1.6-0.2
	c0.6,0,1.2,0.1,1.7,0.4s0.9,0.6,1.1,1c0.3,0.4,0.5,0.9,0.6,1.4c0.1,0.4,0.2,0.9,0.2,1.3c0,0.3,0,0.8,0,1.5c0,0.6,0,1.3-0.1,1.9
	c0,0.6-0.1,1.3-0.2,1.9c-0.1,0.6-0.3,1.1-0.5,1.7c-0.2,0.5-0.5,0.9-0.9,1.3c-0.7,0.7-1.7,1.1-3,1.1c-0.4,0-0.9-0.1-1.3-0.2
	c-0.4-0.1-0.6-0.3-0.8-0.5c-0.4-0.4-0.6-0.8-0.7-1.1v-0.2h-0.2l0.3,2v2.5c0,0.2-0.4,0.3-1.3,0.4c-0.9,0.1-1.8,0.1-2.7,0.1
	s-1.5,0-1.8-0.1C143.6,38.9,143.5,38.7,143.5,38.5z M150.7,26.6c-0.1-0.5-0.3-0.8-0.6-0.8s-0.5,0.1-0.6,0.4v5.9
	c0,0.4,0.2,0.6,0.6,0.6c0.5,0,0.8-1.2,0.8-3.5C150.9,28,150.9,27.1,150.7,26.6z"/>
</svg>
