<?xml version="1.0" encoding="utf-8"?>
<!-- Generator: Adobe Illustrator 23.0.1, SVG Export Plug-In . SVG Version: 6.00 Build 0)  -->
<svg version="1.1" id="Layer_1" xmlns="http://www.w3.org/2000/svg" xmlns:xlink="http://www.w3.org/1999/xlink" x="0px" y="0px"
	 viewBox="0 0 533 136" style="enable-background:new 0 0 533 136;" xml:space="preserve">
<style type="text/css">
	.st0{fill:#FFFFFF;}
	.st1{fill:#F0B90B;}
</style>
<path class="st0" d="M195.2,53.7v-0.2c0-7.5-4-11.3-10.5-13.8c4-2.2,7.4-5.8,7.4-12.1v-0.2c0-8.8-7.1-14.5-18.5-14.5h-26.1v56.2
	h26.7C186.9,69.1,195.2,64,195.2,53.7z M179.8,29.7c0,4.2-3.5,5.9-8.9,5.9h-11.4V23.8h12.2c5.2,0,8.1,2.1,8.1,5.8V29.7z M183,52.2
	c0,4.2-3.3,6.1-8.7,6.1h-14.7V45.9h14.3c6.3,0,9.1,2.3,9.1,6.1V52.2z M221.2,69.1V12.9h-12.4v56.2H221.2z M287.6,69.1V12.9h-12.2
	v34.6l-26.3-34.6h-11.4v56.2h12.2V33.4l27.2,35.7H287.6z M356,69.1L332,12.5h-11.4l-24.1,56.6h12.6l5.1-12.6H338l5.1,12.6H356z
	 M333.6,45.6h-14.9l7.5-18.2L333.6,45.6z M415,69.1V12.9h-12.2v34.6l-26.3-34.6H365v56.2h12.2V33.4l27.2,35.7H415z M478.8,60
	l-7.9-7.9c-4.4,4-8.3,6.6-14.8,6.6c-9.6,0-16.3-8-16.3-17.7v-0.2c0-9.6,6.8-17.5,16.3-17.5c5.6,0,10,2.4,14.4,6.3l7.9-9.1
	c-5.2-5.1-11.6-8.7-22.1-8.7C439,12,426.9,25.1,426.9,41v0.2c0,16.1,12.3,28.9,28.8,28.9C466.6,70.1,473,66.2,478.8,60z M531.5,69.1
	v-11H501V46.3h26.5v-11H501V23.9h30.1v-11h-42.4v56.2H531.5z"/>
<path class="st0" d="M153.1,96.2c0-2.5,2.2-4.5,6.1-4.5c3.4,0,6.8,1.3,10.2,3.8l3.5-5c-3.8-3-8.1-4.7-13.6-4.7
	c-7.4,0-12.8,4.4-12.8,10.9c0,6.9,4.5,9.3,12.5,11.2c6.9,1.6,8.4,3,8.4,5.8c0,2.9-2.6,4.8-6.6,4.8c-4.6,0-8.2-1.8-11.8-4.9l-4,4.7
	c4.5,4,9.9,6,15.6,6c7.9,0,13.4-4.2,13.4-11.2c0-6.3-4.1-9.1-12-11C154.8,100.5,153.1,99.2,153.1,96.2z"/>
<path class="st0" d="M211.9,97v26.8h6.6V86.5h-7l-11.4,17.7l-11.4-17.7h-7v37.4h6.5V97.1l11.7,17.5h0.2L211.9,97z"/>
<path class="st0" d="M247.4,86.2h-6.1l-16.5,37.7h6.7l3.8-9h17.7l3.8,9h6.9L247.4,86.2z M250.7,109h-12.9l6.4-15L250.7,109z"/>
<path class="st0" d="M302,123.9l-10.1-14.2c5.2-1.4,8.9-5.2,8.9-11.4c0-7.3-5.3-11.9-13.9-11.9h-16.7v37.4h6.6v-13h8.2l9.2,13H302z
	 M294.2,98.7c0,3.8-3,6.3-7.7,6.3h-9.6V92.4h9.6C291.3,92.4,294.2,94.6,294.2,98.7z"/>
<path class="st0" d="M324.6,92.6h11.9v-6.1h-30.4v6.1H318v31.3h6.6V92.6z"/>
<path class="st0" d="M392,117.9l-4.2-4.3c-3.2,3-6.1,4.9-10.7,4.9c-7.2,0-12.3-6-12.3-13.4c0-7.4,5.2-13.3,12.3-13.3
	c4.3,0,7.5,1.9,10.5,4.6l4.2-4.9c-3.6-3.4-7.7-5.8-14.6-5.8c-11.3,0-19.3,8.7-19.3,19.4c0,10.8,8.1,19.3,19,19.3
	C383.8,124.5,388.1,121.9,392,117.9z"/>
<path class="st0" d="M423.3,108.1v15.8h6.6V86.5h-6.6V102h-17.8V86.5h-6.6v37.4h6.6v-15.8H423.3z"/>
<path class="st0" d="M458.8,86.2h-6.1l-16.5,37.7h6.7l3.8-9h17.7l3.8,9h6.9L458.8,86.2z M462.2,109h-12.9l6.4-15L462.2,109z"/>
<path class="st0" d="M482.1,86.5v37.4h6.6V86.5H482.1z"/>
<path class="st0" d="M524.8,112.3l-20-25.9h-6.1v37.4h6.5V97.3l20.6,26.6h5.5V86.5h-6.5V112.3z"/>
<rect x="6.5" y="58.9" transform="matrix(0.7071 -0.7071 0.7071 0.7071 -43.9431 32.0544)" class="st1" width="20.4" height="20.4"/>
<polygon class="st1" points="66.3,34 91,58.7 105.5,44.3 66.3,5.1 27,44.3 41.5,58.7 "/>
<rect x="105.6" y="58.9" transform="matrix(0.7071 -0.7071 0.7071 0.7071 -14.9192 102.1252)" class="st1" width="20.4" height="20.4"/>
<polygon class="st1" points="66.3,104.2 41.5,79.4 27,93.8 66.3,133.1 105.5,93.8 91,79.4 "/>
<rect x="56.1" y="58.9" transform="matrix(0.7071 -0.7071 0.7071 0.7071 -29.4311 67.09)" class="st1" width="20.4" height="20.4"/>
</svg>
