<?xml version="1.0" encoding="utf-8"?>
<!-- Generator: Adobe Illustrator 23.0.1, SVG Export Plug-In . SVG Version: 6.00 Build 0)  -->
<svg version="1.1" id="Layer_1" xmlns="http://www.w3.org/2000/svg" xmlns:xlink="http://www.w3.org/1999/xlink" x="0px" y="0px"
	 viewBox="0 0 1281 198" style="enable-background:new 0 0 1281 198;" xml:space="preserve">
<style type="text/css">
	.st0{fill:#FFFFFF;}
	.st1{fill-rule:evenodd;clip-rule:evenodd;fill:#633001;}
	.st2{fill:#FEDC90;}
	.st3{fill-rule:evenodd;clip-rule:evenodd;fill:#D1884F;}
	.st4{fill:#633001;}
</style>
<path class="st0" d="M247,153.1c-3,0-5.1-0.6-6.3-1.8c-1.1-1.2-1.7-3.2-1.7-5.9V56.2c0-2.7,0.6-4.6,1.8-5.9c1.2-1.3,3.3-2,6.2-2
	h37.8c14.4,0,25,3,31.7,9.1c6.8,6.1,10.2,15.1,10.2,27.1c0,11.9-3.4,20.9-10.2,27c-6.7,6-17.3,8.9-31.7,8.9h-14.6v25
	c0,2.7-0.6,4.6-1.8,5.9c-1.2,1.2-3.3,1.8-6.3,1.8H247z M282.3,98.1c4.2,0,7.4-1.1,9.7-3.4c2.4-2.3,3.5-5.7,3.5-10.2
	c0-4.6-1.2-8.1-3.5-10.3c-2.3-2.3-5.5-3.4-9.7-3.4h-12.2v27.3H282.3z"/>
<path class="st0" d="M363.1,155.4c-9.7,0-17.4-3.1-23.3-9.2c-5.8-6.3-8.6-15.1-8.6-26.4c0-8.6,2-16.2,5.9-22.7
	c4-6.5,9.6-11.5,16.8-14.9c7.3-3.6,15.7-5.4,25.1-5.4c7.8,0,14.7,0.9,20.6,2.6c6.1,1.6,11.6,4.1,16.6,7.2v61.6c0,2-0.4,3.2-1.1,3.9
	c-0.7,0.6-2.2,0.9-4.3,0.9h-15.7c-1.1,0-2-0.2-2.6-0.5c-0.6-0.4-1.1-1-1.5-1.8l-2-4.6c-3,3.2-6.6,5.5-10.8,6.9
	C374.1,154.6,369,155.4,363.1,155.4z M374.6,134.4c4,0,7.1-1,9.4-2.9c2.3-2,3.4-4.7,3.4-8.3v-24c-2-0.9-4.4-1.4-7.4-1.4
	c-5.4,0-9.8,1.9-13.1,5.7c-3.2,3.8-4.8,9.1-4.8,16C362.1,129.5,366.3,134.4,374.6,134.4z"/>
<path class="st0" d="M437.7,153.1c-3,0-5.1-0.6-6.3-1.8c-1.2-1.2-1.8-3.2-1.8-5.9V83.9c0-1.8,0.3-3.1,0.9-3.7
	c0.7-0.7,2.2-1.1,4.3-1.1h15.9c1.2,0,2.2,0.2,2.8,0.6c0.7,0.3,1.1,0.9,1.2,1.8l0.8,4.6c2.9-2.9,6.6-5.1,11.2-6.8
	c4.7-1.7,10-2.6,15.7-2.6c8.3,0,15,2.4,20.2,7.1c5.1,4.6,7.7,11.5,7.7,20.6v40.8c0,2.7-0.6,4.6-1.8,5.9c-1.1,1.2-3.2,1.8-6.2,1.8
	h-14.9c-3,0-5.1-0.6-6.5-1.8c-1.2-1.2-1.8-3.2-1.8-5.9v-38.8c0-3.1-0.7-5.3-2-6.6c-1.3-1.3-3.4-2-6.3-2c-3.1,0-5.5,0.8-7.4,2.5
	c-1.7,1.6-2.6,3.9-2.6,6.8v38.2c0,2.7-0.6,4.6-1.8,5.9c-1.1,1.2-3.2,1.8-6.2,1.8H437.7z"/>
<path class="st0" d="M564.7,155.4c-14.4,0-25.5-3.3-33.3-10c-7.8-6.7-11.7-16.4-11.7-29.1c0-7.8,1.8-14.7,5.4-20.6
	c3.6-6,8.8-10.6,15.6-13.9c6.9-3.3,15-4.9,24.3-4.9c7.1,0,13,0.7,17.9,2c4.9,1.3,9.3,3.4,13.1,6.2c1.1,0.7,1.7,1.6,1.7,2.8
	c0,0.8-0.4,1.9-1.2,3.2l-6.3,10.9c-0.7,1.4-1.6,2.2-2.6,2.2c-0.6,0-1.6-0.4-2.9-1.2c-2.8-1.7-5.4-3-7.9-3.9
	c-2.4-0.8-5.3-1.2-8.9-1.2c-5.1,0-9.3,1.6-12.5,4.9c-3.1,3.3-4.6,7.8-4.6,13.6c0,5.9,1.6,10.4,4.8,13.6c3.2,3.1,7.6,4.6,13.1,4.6
	c3.3,0,6.3-0.5,8.9-1.4c2.7-0.9,5.4-2.2,8.2-3.9c1.4-0.8,2.5-1.2,3.1-1.2c0.9,0,1.7,0.7,2.5,2.2l6.9,11.9c0.5,1,0.8,1.8,0.8,2.5
	c0,0.9-0.6,1.8-1.8,2.6c-4.3,2.8-9,4.8-14.2,6.2C577.9,154.7,571.8,155.4,564.7,155.4z"/>
<path class="st0" d="M638,155.4c-9.7,0-17.4-3.1-23.3-9.2c-5.8-6.3-8.6-15.1-8.6-26.4c0-8.6,2-16.2,5.9-22.7
	c4-6.5,9.6-11.5,16.8-14.9c7.3-3.6,15.7-5.4,25.1-5.4c7.8,0,14.7,0.9,20.6,2.6c6.1,1.6,11.6,4.1,16.6,7.2v61.6c0,2-0.4,3.2-1.1,3.9
	c-0.7,0.6-2.2,0.9-4.3,0.9h-15.7c-1.1,0-2-0.2-2.6-0.5c-0.6-0.4-1.1-1-1.5-1.8l-2-4.6c-3,3.2-6.6,5.5-10.8,6.9
	C649,154.6,644,155.4,638,155.4z M649.6,134.4c4,0,7.1-1,9.4-2.9c2.3-2,3.4-4.7,3.4-8.3v-24c-2-0.9-4.4-1.4-7.4-1.4
	c-5.4,0-9.8,1.9-13.1,5.7c-3.2,3.8-4.8,9.1-4.8,16C637.1,129.5,641.2,134.4,649.6,134.4z"/>
<path class="st0" d="M788,147.2c0.7,0.8,1.1,1.7,1.1,2.8c0,0.9-0.3,1.7-0.9,2.3c-0.6,0.5-1.4,0.8-2.5,0.8h-23.9
	c-1.4,0-2.5-0.1-3.2-0.3c-0.6-0.3-1.3-0.9-2-1.7l-21-28.5v22.8c0,2.7-0.6,4.6-1.8,5.9c-1.2,1.2-3.3,1.8-6.3,1.8h-14.9
	c-3,0-5.1-0.6-6.3-1.8c-1.1-1.2-1.7-3.2-1.7-5.9V56.2c0-2.7,0.6-4.6,1.8-5.9c1.2-1.3,3.3-2,6.2-2h14.9c3,0,5.1,0.7,6.3,2
	c1.2,1.2,1.8,3.2,1.8,5.9v51.6l20.3-26.5c0.6-0.8,1.3-1.4,2-1.7c0.7-0.3,1.8-0.5,3.2-0.5H785c1,0,1.8,0.3,2.3,0.9
	c0.6,0.5,0.9,1.2,0.9,2.2c0,1-0.4,2-1.1,2.8l-26.3,30.2L788,147.2z"/>
<path class="st0" d="M838,155.4c-8.6,0-16.3-1.4-23.1-4.3c-6.7-2.9-12-7.2-15.9-12.9c-3.9-5.8-5.9-12.8-5.9-21.1
	c0-13,3.7-23,11.1-29.9c7.4-6.9,18-10.3,31.9-10.3c13.6,0,23.8,3.4,30.8,10.2c7.1,6.7,10.6,16,10.6,27.9c0,5.1-2.3,7.7-6.8,7.7
	h-48.4c0,4.4,1.6,7.8,4.9,10.2c3.4,2.4,8.5,3.5,15.3,3.5c4.2,0,7.7-0.4,10.5-1.1c2.9-0.8,5.8-2,8.6-3.5c1.2-0.5,2.1-0.8,2.5-0.8
	c0.9,0,1.7,0.6,2.3,1.8l5.2,9.9c0.5,1,0.8,1.8,0.8,2.3c0,0.9-0.6,1.8-1.8,2.6c-4.2,2.8-9,4.8-14.3,6S844.9,155.4,838,155.4z
	 M849.9,107.3c0-3.9-1.1-6.9-3.4-9.1c-2.3-2.2-5.7-3.2-10.2-3.2c-4.5,0-8,1.1-10.3,3.4c-2.4,2.2-3.5,5.1-3.5,8.9H849.9z"/>
<path class="st0" d="M930.4,155.4c-8.6,0-16.8-0.9-24.5-2.6c-7.7-1.8-13.9-4.4-18.6-7.7c-1.7-1.1-2.6-2.3-2.6-3.5
	c0-0.8,0.3-1.7,0.9-2.6l7.6-12c0.8-1.2,1.6-1.8,2.5-1.8c0.5,0,1.4,0.4,2.6,1.1c3.8,2.2,8.1,3.9,12.9,5.2c4.8,1.3,9.6,2,14.3,2
	c4.8,0,8.4-0.7,10.6-2.2c2.4-1.4,3.5-3.7,3.5-6.9c0-3.1-1.3-5.5-3.9-7.2c-2.5-1.7-7.1-4-14-6.6c-10.4-3.9-18.5-8.3-24.3-13.1
	c-5.8-4.9-8.6-11.6-8.6-20c0-10.2,3.6-17.9,10.9-23.3c7.3-5.3,17-8,29.1-8c8.4,0,15.6,0.8,21.6,2.3c6.1,1.4,11.2,3.7,15.4,6.8
	c1.7,1.3,2.6,2.6,2.6,3.7c0,0.7-0.3,1.5-0.9,2.5l-7.5,12c-0.9,1.2-1.7,1.8-2.5,1.8c-0.5,0-1.4-0.4-2.6-1.1c-6-3.9-13-5.9-21.3-5.9
	c-4.4,0-7.8,0.7-10.2,2.2c-2.4,1.4-3.5,3.8-3.5,7.1c0,2.3,0.6,4.1,1.8,5.5c1.2,1.4,2.9,2.7,4.9,3.9c2.2,1,5.4,2.4,9.9,4l2.9,1.1
	c7.6,3,13.6,5.9,17.9,8.6c4.4,2.7,7.8,6,10,10c2.3,3.9,3.4,8.8,3.4,14.8c0,9.1-3.4,16.4-10.3,21.9
	C953.7,152.7,943.7,155.4,930.4,155.4z"/>
<path class="st0" d="M1003.5,153.1c-1.5,0-2.7-0.3-3.5-0.8c-0.8-0.5-1.4-1.5-1.9-3.1l-19.9-66.6c-0.2-0.6-0.3-1.1-0.3-1.4
	c0-1.4,1-2.2,3.1-2.2h20.3c1.3,0,2.3,0.3,2.9,0.8c0.6,0.4,1,1.1,1.2,2.2l8.3,35l10.5-28.2c0.5-1.2,1-2.1,1.5-2.5
	c0.6-0.5,1.7-0.8,3.1-0.8h9.7c1.4,0,2.4,0.3,2.9,0.8c0.6,0.4,1.2,1.2,1.7,2.5l10.3,28.2l8.5-35c0.3-1,0.7-1.7,1.2-2.2
	c0.5-0.5,1.4-0.8,2.8-0.8h20.5c2.1,0,3.1,0.7,3.1,2.2c0,0.3-0.1,0.8-0.3,1.4l-20,66.6c-0.4,1.5-1,2.6-1.8,3.1
	c-0.7,0.5-1.8,0.8-3.4,0.8H1049c-1.4,0-2.5-0.3-3.2-0.8c-0.7-0.6-1.3-1.6-1.8-3.1l-10.2-27.9l-10.2,27.9c-0.4,1.4-1,2.5-1.8,3.1
	c-0.7,0.5-1.8,0.8-3.2,0.8H1003.5z"/>
<path class="st0" d="M1128.7,155.4c-9.7,0-17.4-3.1-23.3-9.2c-5.8-6.3-8.6-15.1-8.6-26.4c0-8.6,2-16.2,5.9-22.7
	c4-6.5,9.6-11.5,16.8-14.9c7.3-3.6,15.7-5.4,25.1-5.4c7.8,0,14.7,0.9,20.7,2.6c6.1,1.6,11.6,4.1,16.6,7.2v61.6c0,2-0.4,3.2-1.1,3.9
	c-0.7,0.6-2.2,0.9-4.3,0.9h-15.7c-1.1,0-2-0.2-2.6-0.5c-0.6-0.4-1.1-1-1.5-1.8l-2-4.6c-3,3.2-6.6,5.5-10.8,6.9
	C1139.7,154.6,1134.7,155.4,1128.7,155.4z M1140.3,134.4c4,0,7.1-1,9.4-2.9c2.3-2,3.4-4.7,3.4-8.3v-24c-2-0.9-4.4-1.4-7.4-1.4
	c-5.5,0-9.8,1.9-13.1,5.7c-3.2,3.8-4.8,9.1-4.8,16C1127.8,129.5,1132,134.4,1140.3,134.4z"/>
<path class="st0" d="M1203.2,184.2c-3,0-5.1-0.6-6.3-1.8c-1.1-1.2-1.7-3.2-1.7-5.9V88.2c4.6-3.3,10.4-6,17.4-8.2
	c7-2.2,14.3-3.2,21.9-3.2c31,0,46.5,13.1,46.5,39.4c0,11.9-3.3,21.4-9.9,28.5c-6.6,7.1-15.9,10.6-27.9,10.6c-3.4,0-6.7-0.4-9.9-1.2
	c-3.1-0.8-5.7-2-7.7-3.4v25.7c0,2.7-0.6,4.6-1.9,5.9c-1.2,1.2-3.3,1.8-6.3,1.8H1203.2z M1236.6,134.6c4.4,0,7.7-1.6,9.9-4.9
	c2.3-3.4,3.4-7.9,3.4-13.6c0-6.7-1.3-11.4-4-14c-2.6-2.8-6.6-4.2-12-4.2c-3.5,0-6.3,0.5-8.3,1.4v24.5c0,3.5,1,6.2,2.9,8
	C1230.4,133.7,1233.1,134.6,1236.6,134.6z"/>
<path class="st1" d="M35.8,30.9C32.8,14.9,45,0,61.2,0c14.3,0,25.9,11.7,25.9,26.1v32.2C90.7,58.1,94.3,58,98,58
	c3.5,0,7,0.1,10.5,0.4V26.1c0-14.4,11.6-26.1,25.9-26.1c16.2,0,28.4,14.9,25.4,30.9l-7,37.9c24,10.6,42.2,29,42.2,52.2v14
	c0,19-12.5,35-29.9,45.7C147.6,191.6,123.8,198,98,198c-25.8,0-49.6-6.4-67.1-17.3C13.5,170,1,154,1,135v-14c0-23,18-41.4,41.8-52
	L35.8,30.9z M143.8,73.8l8.2-44.3C154.1,18.3,145.6,8,134.4,8c-9.9,0-18,8.1-18,18.1v41c-2.6-0.3-5.2-0.6-7.9-0.8
	C105,66.1,101.5,66,98,66c-3.7,0-7.3,0.1-10.9,0.4c-2.7,0.2-5.3,0.5-7.9,0.8V26.1c0-10-8-18.1-18-18.1C50,8,41.5,18.3,43.6,29.5
	L51.8,74c-25.7,9.6-42.9,27.1-42.9,47v14c0,30.4,39.9,55,89.1,55c49.2,0,89.1-24.6,89.1-55v-14C187.1,101,169.7,83.4,143.8,73.8z"/>
<path class="st2" d="M187.1,135c0,30.4-39.9,55-89.1,55c-49.2,0-89.1-24.6-89.1-55v-14h178.2V135z"/>
<path class="st3" d="M43.6,29.5C41.5,18.3,50,8,61.2,8c9.9,0,18,8.1,18,18.1v41.1C85.3,66.4,91.5,66,98,66c6.3,0,12.5,0.4,18.4,1.2
	v-41c0-10,8-18.1,18-18.1c11.2,0,19.7,10.3,17.7,21.5l-8.2,44.3c25.9,9.6,43.3,27.1,43.3,47.2c0,30.4-39.9,55-89.1,55
	c-49.2,0-89.1-24.6-89.1-55c0-19.9,17.2-37.4,42.9-47L43.6,29.5z"/>
<path class="st4" d="M73.3,117c0,8.3-4.4,15-9.9,15c-5.5,0-9.9-6.7-9.9-15s4.4-15,9.9-15C68.8,102,73.3,108.7,73.3,117z"/>
<path class="st4" d="M141.6,117c0,8.3-4.4,15-9.9,15c-5.5,0-9.9-6.7-9.9-15s4.4-15,9.9-15C137.1,102,141.6,108.7,141.6,117z"/>
</svg>
