<?xml version="1.0" encoding="UTF-8"?>
<svg width="176px" height="13px" viewBox="0 0 176 13" version="1.1" xmlns="http://www.w3.org/2000/svg" xmlns:xlink="http://www.w3.org/1999/xlink">
    <!-- Generator: Sketch 63 (92445) - https://sketch.com -->
    <title>编组</title>
    <desc>Created with Sketch.</desc>
    <defs>
        <polygon id="path-1" points="0.3382 0.1191 10.0352 0.1191 10.0352 13 0.3382 13"></polygon>
        <polygon id="path-3" points="0.4197 0.2261 10.0267 0.2261 10.0267 13 0.4197 13"></polygon>
        <polygon id="path-5" points="0 13.8813 175.862 13.8813 175.862 1.0003 0 1.0003"></polygon>
    </defs>
    <g id="页面-1" stroke="none" stroke-width="1" fill="none" fill-rule="evenodd">
        <g id="首页-未连接" transform="translate(-369.000000, -2778.000000)">
            <g id="编组" transform="translate(369.000000, 2777.000000)">
                <path d="M22.7135,3.8999 L20.9515,3.8999 L20.9515,6.4619 L22.7135,6.4619 C23.5675,6.4619 24.0655,5.8389 24.0655,5.1809 C24.0655,4.5229 23.5675,3.8999 22.7135,3.8999 L22.7135,3.8999 Z M24.2425,13.7749 L22.0015,9.0599 L20.9515,9.0599 L20.9515,13.7749 L17.8385,13.7749 L17.8385,1.1069 L22.8555,1.1069 C25.6665,1.1069 27.1795,3.0989 27.1795,5.1809 C27.1795,6.9069 26.1105,7.9919 25.1145,8.4899 L27.8555,13.7749 L24.2425,13.7749 Z" id="Fill-1" fill="#000000"></path>
                <polygon id="Fill-3" fill="#000000" points="32.9908 13.7745 32.9908 1.1075 41.6018 1.1075 41.6018 3.8825 36.1038 3.8825 36.1038 5.9995 40.8018 5.9995 40.8018 8.7745 36.1038 8.7745 36.1038 10.9995 41.6018 10.9995 41.6018 13.7745"></polygon>
                <polygon id="Fill-5" fill="#000000" points="54.442 13.7745 57.698 13.7745 53.089 1.1075 50.688 1.1075 46.08 13.7745 49.336 13.7745 49.706 12.6555 49.707 12.6525 49.959 11.8885 49.963 11.8885 51.968 5.9105 54.19 12.9405 54.182 12.9395"></polygon>
                <polygon id="Fill-7" fill="#000000" points="142.3326 13.7745 145.5886 13.7745 140.9796 1.1075 138.5786 1.1075 133.9706 13.7745 137.2266 13.7745 137.5966 12.6555 137.5976 12.6525 137.8496 11.8885 137.8536 11.8885 139.8586 5.9105 142.0806 12.9405 142.0726 12.9395"></polygon>
                <g transform="translate(61.000000, 0.881300)">
                    <mask id="mask-2" fill="white">
                        <use xlink:href="#path-1"></use>
                    </mask>
                    <g id="Clip-10"></g>
                    <path d="M5.1422,13.0001 C3.2032,13.0001 1.6202,12.6441 0.3382,11.3271 L2.3312,9.3351 C2.9902,9.9931 4.1462,10.2241 5.1602,10.2241 C6.3872,10.2241 6.9752,9.8151 6.9752,9.0851 C6.9752,8.7831 6.9042,8.5341 6.7262,8.3381 C6.5662,8.1781 6.2982,8.0541 5.8892,8.0001 L4.3602,7.7871 C3.2392,7.6271 2.3842,7.2531 1.8152,6.6661 C1.2282,6.0611 0.9442,5.2071 0.9442,4.1221 C0.9442,1.8091 2.6872,0.1191 5.5692,0.1191 C7.3842,0.1191 8.7542,0.5451 9.8392,1.6311 L7.8822,3.5881 C7.0812,2.7871 6.0322,2.8411 5.4802,2.8411 C4.3952,2.8411 3.9502,3.4631 3.9502,4.0151 C3.9502,4.1751 4.0032,4.4061 4.2002,4.6021 C4.3602,4.7621 4.6262,4.9221 5.0712,4.9761 L6.6012,5.1891 C7.7402,5.3501 8.5582,5.7051 9.0922,6.2391 C9.7682,6.8971 10.0352,7.8401 10.0352,9.0151 C10.0352,11.5941 7.8112,13.0001 5.1422,13.0001" id="Fill-9" fill="#000000" mask="url(#mask-2)"></path>
                </g>
                <g transform="translate(76.000000, 0.881300)">
                    <mask id="mask-4" fill="white">
                        <use xlink:href="#path-3"></use>
                    </mask>
                    <g id="Clip-12"></g>
                    <path d="M5.2057,13.0001 C2.5727,13.0001 0.4197,11.2211 0.4197,8.4451 L0.4197,0.2261 L3.5327,0.2261 L3.5327,8.3741 C3.5327,9.5481 4.1737,10.2241 5.2057,10.2241 C6.2377,10.2241 6.9137,9.5481 6.9137,8.3741 L6.9137,0.2261 L10.0267,0.2261 L10.0267,8.4451 C10.0267,11.2211 7.8387,13.0001 5.2057,13.0001" id="Fill-11" fill="#000000" mask="url(#mask-4)"></path>
                </g>
                <path d="M96.8033,3.8999 L95.0413,3.8999 L95.0413,6.4619 L96.8033,6.4619 C97.6573,6.4619 98.1553,5.8389 98.1553,5.1809 C98.1553,4.5229 97.6573,3.8999 96.8033,3.8999 L96.8033,3.8999 Z M98.3323,13.7749 L96.0913,9.0599 L95.0413,9.0599 L95.0413,13.7749 L91.9283,13.7749 L91.9283,1.1069 L96.9453,1.1069 C99.7563,1.1069 101.2693,3.0989 101.2693,5.1809 C101.2693,6.9069 100.2003,7.9919 99.2043,8.4899 L101.9453,13.7749 L98.3323,13.7749 Z" id="Fill-13" fill="#000000"></path>
                <polygon id="Fill-15" fill="#000000" points="107.0807 13.7745 107.0807 1.1075 115.6917 1.1075 115.6917 3.8825 110.1937 3.8825 110.1937 5.9995 114.8917 5.9995 114.8917 8.7745 110.1937 8.7745 110.1937 10.9995 115.6917 10.9995 115.6917 13.7745"></polygon>
                <polygon id="Fill-17" fill="#000000" points="121.4508 13.7745 121.4508 1.1075 124.5638 1.1075 124.5638 10.9995 129.8838 10.9995 129.8838 13.7745"></polygon>
                <polygon id="Fill-19" fill="#000000" points="157.5914 13.7745 153.5344 7.4045 153.5344 13.7745 150.4214 13.7745 150.4214 1.1075 153.1434 1.1075 157.1994 7.4765 157.1994 1.1075 160.3134 1.1075 160.3134 13.7745"></polygon>
                <path d="M172.4049,4.5938 C172.1209,4.1668 171.6939,3.8828 170.9109,3.8828 L169.5409,3.8828 L169.5409,10.9988 L170.9109,10.9988 C171.6939,10.9988 172.1209,10.7148 172.4049,10.2868 C172.6539,9.9308 172.7429,9.5938 172.7429,7.4408 C172.7429,5.3058 172.6539,4.9498 172.4049,4.5938 M174.5399,12.5288 C173.6689,13.4008 172.4409,13.7748 171.1239,13.7748 L166.4269,13.7748 L166.4269,1.1068 L171.1239,1.1068 C172.4409,1.1068 173.6689,1.4808 174.5399,2.3518 C176.0169,3.8288 175.8569,5.4478 175.8569,7.4408 C175.8569,9.4328 176.0169,11.0518 174.5399,12.5288" id="Fill-21" fill="#000000"></path>
                <mask id="mask-6" fill="white">
                    <use xlink:href="#path-5"></use>
                </mask>
                <g id="Clip-24"></g>
                <polygon id="Fill-23" fill="#000000" mask="url(#mask-6)" points="3.801 13.7753 7.133 13.7753 7.133 4.4043 3.801 4.4043"></polygon>
                <polygon id="Fill-25" fill="#000000" mask="url(#mask-6)" points="0 4.4043 7.134 4.4043 7.134 1.0723 0 1.0723"></polygon>
                <path d="M12.7066,2.8272 C12.7066,3.7962 11.9216,4.5822 10.9516,4.5822 C9.9816,4.5822 9.1956,3.7962 9.1956,2.8272 C9.1956,1.8572 9.9816,1.0722 10.9516,1.0722 C11.9216,1.0722 12.7066,1.8572 12.7066,2.8272" id="Fill-26" fill="#000000" mask="url(#mask-6)"></path>
            </g>
        </g>
    </g>
</svg>