<?xml version="1.0" encoding="utf-8"?>
<!-- Generator: Adobe Illustrator 23.0.1, SVG Export Plug-In . SVG Version: 6.00 Build 0)  -->
<svg version="1.1" id="Layer_1" xmlns="http://www.w3.org/2000/svg" xmlns:xlink="http://www.w3.org/1999/xlink" x="0px" y="0px"
	 viewBox="0 0 1459 238" style="enable-background:new 0 0 1459 238;" xml:space="preserve">
<style type="text/css">
	.st0{fill-rule:evenodd;clip-rule:evenodd;fill:#FFFFFF;}
	.st1{fill:#3B99FC;}
</style>
<title>walletconnect-banner-2</title>
<desc>Created with Sketch.</desc>
<g id="Page-1">
	<g id="walletconnect-banner-2">
		<path id="WalletConnect" class="st0" d="M526.8,130.2l-20,72.1h-20.8L458,96.8h22.9l16.6,76.4h0.6l19.7-76.4h18.6l19.7,76.4h0.6
			l16.7-76.4h22.9l-28,105.5h-20.8l-20-72.1H526.8z M626.7,188.1c9.3,0,17-6.1,17-14.5v-5.7l-16.5,1c-8,0.6-12.5,4.2-12.5,9.7
			C614.6,184.4,619.4,188.1,626.7,188.1z M619.6,203.5c-14.9,0-26.2-9.6-26.2-23.8c0-14.3,11-22.5,30.5-23.7l19.7-1.2v-5.2
			c0-7.3-5.1-11.5-13.2-11.5c-8,0-13,3.9-14,9.7h-19.5c0.8-15.2,13.7-25.7,34.5-25.7c20.1,0,33.2,10.4,33.2,26.2v53.9H644v-12h-0.4
			C639.2,198.6,629.4,203.5,619.6,203.5z M678.8,202.3V96.8h21.3v105.5H678.8z M715.1,202.3V96.8h21.3v105.5H715.1z M786,138
			c-9.4,0-16.1,7.1-16.8,16.9h33.3C802,144.9,795.5,138,786,138z M802.7,178.3h19.6c-2.3,15.3-16.4,25.7-35.7,25.7
			c-24.1,0-38.6-15.4-38.6-40.5c0-25,14.6-41.2,37.8-41.2c22.8,0,37.2,15.4,37.2,39.2v6.5h-54v1.3c0,11.2,7.1,18.9,18,18.9
			C794.7,188.2,800.7,184.3,802.7,178.3z M839.6,105.9H861v18.1h14.5V140H861v37.5c0,6,2.9,8.8,9.2,8.8c1.9,0,3.9-0.1,5.2-0.4v15.7
			c-2.2,0.5-5.8,0.9-10.2,0.9c-18.4,0-25.6-6.1-25.6-21.4V140h-11v-16.1h11V105.9z M935.6,204.1c-30.7,0-49.9-20.5-49.9-54.6
			c0-34,19.4-54.5,49.9-54.5c25.4,0,44.7,16.1,46.3,39.7h-21.5c-2-12.9-12-21.4-24.8-21.4c-16.7,0-27.4,14-27.4,36.2
			c0,22.5,10.6,36.4,27.5,36.4c13.1,0,22.5-7.7,24.8-20.2H982C979.5,189.2,961.4,204.1,935.6,204.1z M1029.7,204
			c-23.7,0-38.8-15.2-38.8-40.9c0-25.4,15.3-40.8,38.8-40.8c23.5,0,38.8,15.3,38.8,40.8C1068.5,188.8,1053.4,204,1029.7,204z
			 M1029.7,187.7c10.5,0,17.1-8.8,17.1-24.6c0-15.6-6.7-24.6-17.1-24.6c-10.4,0-17.2,9-17.2,24.6
			C1012.5,178.8,1019.2,187.7,1029.7,187.7z M1079.5,202.3v-78.3h20.6v14h0.4c4.2-9.7,12.4-15.4,24.5-15.4c17.4,0,27.2,11,27.2,29.3
			v50.5h-21.3v-46c0-10.2-4.8-16.1-14.4-16.1s-15.6,7-15.6,17.2v44.9H1079.5z M1165.7,202.3v-78.3h20.6v14h0.4
			c4.2-9.7,12.4-15.4,24.5-15.4c17.4,0,27.2,11,27.2,29.3v50.5h-21.3v-46c0-10.2-4.8-16.1-14.4-16.1c-9.6,0-15.6,7-15.6,17.2v44.9
			H1165.7z M1287.1,138c-9.4,0-16.1,7.1-16.8,16.9h33.3C1303.1,144.9,1296.6,138,1287.1,138z M1303.8,178.3h19.6
			c-2.3,15.3-16.4,25.7-35.7,25.7c-24.1,0-38.6-15.4-38.6-40.5c0-25,14.6-41.2,37.8-41.2c22.8,0,37.2,15.4,37.2,39.2v6.5h-54v1.3
			c0,11.2,7.1,18.9,18,18.9C1295.8,188.2,1301.8,184.3,1303.8,178.3z M1406.2,153.1h-19.8c-1.2-8.3-6.7-14.1-15.5-14.1
			c-10.5,0-17.1,8.9-17.1,24c0,15.4,6.6,24.2,17.2,24.2c8.6,0,14.1-5.1,15.4-13.7h19.9c-1.1,18.5-14.9,30.4-35.5,30.4
			c-23.6,0-38.6-15.3-38.6-40.9c0-25.1,15-40.8,38.4-40.8C1391.8,122.3,1405.2,135.3,1406.2,153.1z M1422.3,105.9h21.3v18.1h14.5
			V140h-14.5v37.5c0,6,2.9,8.8,9.2,8.8c1.9,0,3.9-0.1,5.2-0.4v15.7c-2.2,0.5-5.8,0.9-10.2,0.9c-18.4,0-25.6-6.1-25.6-21.4V140h-11
			v-16.1h11V105.9z"/>
		<path class="st1" d="M79.5,46.5c63.2-61.9,165.7-61.9,228.9,0L316,54c3.2,3.1,3.2,8.1,0,11.2l-26,25.5c-1.6,1.5-4.1,1.5-5.7,0
			l-10.5-10.3c-44.1-43.2-115.6-43.2-159.7,0l-11.2,11c-1.6,1.5-4.1,1.5-5.7,0l-26-25.5c-3.2-3.1-3.2-8.1,0-11.2L79.5,46.5z
			 M362.2,99.2l23.2,22.7c3.2,3.1,3.2,8.1,0,11.2L281,235.4c-3.2,3.1-8.3,3.1-11.4,0c0,0,0,0,0,0l-74.1-72.6c-0.8-0.8-2.1-0.8-2.9,0
			c0,0,0,0,0,0l-74.1,72.6c-3.2,3.1-8.3,3.1-11.4,0c0,0,0,0,0,0L2.5,133.1c-3.2-3.1-3.2-8.1,0-11.2l23.2-22.7
			c3.2-3.1,8.3-3.1,11.4,0l74.1,72.6c0.8,0.8,2.1,0.8,2.9,0c0,0,0,0,0,0l74.1-72.6c3.2-3.1,8.3-3.1,11.4,0c0,0,0,0,0,0l74.1,72.6
			c0.8,0.8,2.1,0.8,2.9,0l74.1-72.6C354,96.1,359.1,96.1,362.2,99.2z"/>
	</g>
</g>
</svg>
